<svg width="127" height="57" viewBox="0 0 127 57" fill="none" xmlns="http://www.w3.org/2000/svg">
<mask id="mask0_1862_41887" style="mask-type:alpha" maskUnits="userSpaceOnUse" x="6" y="25" width="15" height="27">
<path d="M6.3501 25.9067H20.9883V51.3707H6.3501V25.9067Z" fill="#1E46A0"/>
</mask>
<g mask="url(#mask0_1862_41887)">
<path fill-rule="evenodd" clip-rule="evenodd" d="M6.3501 25.9067V51.1607C7.22881 51.3026 8.09929 51.3719 8.9686 51.3719C9.76497 51.3719 10.6202 51.3026 11.5142 51.1607V40.5898H18.8721C19.0038 39.8659 19.0791 39.1233 19.0791 38.3759C19.0791 37.6696 19.0038 36.9469 18.8721 36.2019H11.5142V30.2653H20.7766C20.913 29.5567 20.9883 28.8211 20.9883 28.0456C20.9883 27.3228 20.913 26.6083 20.7766 25.9079H6.3501V25.9067Z" fill="#B3D4FF"/>
</g>
<mask id="mask1_1862_41887" style="mask-type:alpha" maskUnits="userSpaceOnUse" x="6" y="25" width="15" height="27">
<path d="M6.3501 25.9067H20.9883V51.3707H6.3501V25.9067Z" fill="#1E46A0"/>
</mask>
<g mask="url(#mask1_1862_41887)">
<path fill-rule="evenodd" clip-rule="evenodd" d="M6.3501 25.9067V51.1607C7.22881 51.3026 8.09929 51.3719 8.9686 51.3719C9.76497 51.3719 10.6202 51.3026 11.5142 51.1607V40.5898H18.8721C19.0038 39.8659 19.0791 39.1233 19.0791 38.3759C19.0791 37.6696 19.0038 36.9469 18.8721 36.2019H11.5142V30.2653H20.7766C20.913 29.5567 20.9883 28.8211 20.9883 28.0456C20.9883 27.3228 20.913 26.6083 20.7766 25.9079H6.3501V25.9067Z" fill="#B3D4FF"/>
</g>
<path fill-rule="evenodd" clip-rule="evenodd" d="M23.9277 25.3106V44.7113C23.9277 46.9369 24.483 48.5524 25.6016 49.5391C26.7192 50.5246 28.2013 51.0174 30.0446 51.0174C30.501 51.0174 31.0022 50.9951 31.5433 50.9494C32.082 50.8977 32.5443 50.8144 32.9243 50.703C32.9772 50.5153 33.0007 50.351 33.0007 50.1938V49.694C33.0007 48.7824 32.8702 47.8555 32.5984 46.8993C32.3832 46.9533 32.1667 46.9826 31.9362 47.0049C31.7044 47.0284 31.495 47.0425 31.3104 47.0425C30.8786 47.0425 30.5163 46.9967 30.2234 46.8993C29.9388 46.8102 29.7058 46.6389 29.5212 46.4007C29.3435 46.152 29.2118 45.8094 29.1283 45.3683C29.0436 44.9271 29.0036 44.344 29.0036 43.6201V25.3094C28.1331 25.1686 27.2979 25.1006 26.4827 25.1006C25.6405 25.1006 24.7923 25.1675 23.9277 25.3094" fill="#B3D4FF"/>
<path fill-rule="evenodd" clip-rule="evenodd" d="M23.9277 25.3106V44.7113C23.9277 46.9369 24.483 48.5524 25.6016 49.5391C26.7192 50.5246 28.2013 51.0174 30.0446 51.0174C30.501 51.0174 31.0022 50.9951 31.5433 50.9494C32.082 50.8977 32.5443 50.8144 32.9243 50.703C32.9772 50.5153 33.0007 50.351 33.0007 50.1938V49.694C33.0007 48.7824 32.8702 47.8555 32.5984 46.8993C32.3832 46.9533 32.1667 46.9826 31.9362 47.0049C31.7044 47.0284 31.495 47.0425 31.3104 47.0425C30.8786 47.0425 30.5163 46.9967 30.2234 46.8993C29.9388 46.8102 29.7058 46.6389 29.5212 46.4007C29.3435 46.152 29.2118 45.8094 29.1283 45.3683C29.0436 44.9271 29.0036 44.344 29.0036 43.6201V25.3094C28.1331 25.1686 27.2979 25.1006 26.4827 25.1006C25.6405 25.1006 24.7923 25.1675 23.9277 25.3094V25.3106ZM38.0413 33.1854C36.9426 33.6934 36.018 34.3844 35.2628 35.2679C34.5217 36.1361 33.9559 37.1615 33.5736 38.3394C33.1925 39.5197 33.0007 40.7856 33.0007 42.1207C33.0007 43.5005 33.1854 44.7605 33.5583 45.9138C33.9241 47.0777 34.4911 48.0679 35.2628 48.9091C36.0333 49.7444 37.0344 50.405 38.2636 50.8743C39.487 51.3459 40.9527 51.5806 42.6631 51.5806C44.9922 51.5806 47.0861 51.2239 48.9446 50.5176C48.9117 49.7597 48.8058 49.0534 48.6153 48.3941C48.4294 47.7347 48.2024 47.1739 47.9412 46.694C47.1766 46.9756 46.3767 47.195 45.5357 47.3475C44.6887 47.5 43.8629 47.5822 43.0524 47.5822C41.5785 47.5822 40.3939 47.2572 39.4858 46.6272C38.5918 45.9819 38.0883 44.9588 37.9954 43.5392H49.8292C49.8775 43.2811 49.9198 42.9397 49.9516 42.4927C49.9975 42.0644 50.0116 41.6209 50.0116 41.1739C50.0116 39.9444 49.8281 38.7911 49.4693 37.7129C49.1164 36.6452 48.5823 35.7184 47.8883 34.9417C47.1849 34.1556 46.3379 33.5502 45.3357 33.095C44.3358 32.6469 43.1995 32.4263 41.9149 32.4263C40.441 32.4263 39.1506 32.6797 38.0413 33.1854ZM39.1341 37.2424C39.7528 36.5831 40.6551 36.251 41.8373 36.251C42.8925 36.251 43.7029 36.5995 44.2829 37.2964C44.8628 37.9886 45.1851 38.9049 45.2298 40.0429H38.0272C38.1483 38.8369 38.5153 37.903 39.1329 37.2424" fill="#B3D4FF"/>
<path fill-rule="evenodd" clip-rule="evenodd" d="M38.0415 33.1854C36.9428 33.6934 36.0183 34.3844 35.2631 35.2679C34.522 36.136 33.9562 37.1615 33.5738 38.3394C33.1927 39.5197 33.001 40.7856 33.001 42.1207C33.001 43.5005 33.1857 44.7605 33.5586 45.9138C33.9244 47.0777 34.4914 48.0679 35.2631 48.9091C36.0335 49.7444 37.0346 50.405 38.2639 50.8743C39.4872 51.3459 40.9529 51.5806 42.6633 51.5806C44.9924 51.5806 47.0863 51.2239 48.9449 50.5176C48.912 49.7597 48.8061 49.0534 48.6155 48.394C48.4297 47.7347 48.2026 47.1739 47.9415 46.694C47.1769 46.9756 46.377 47.195 45.5359 47.3475C44.6889 47.5 43.8632 47.5822 43.0527 47.5822C41.5787 47.5822 40.3942 47.2572 39.4861 46.6271C38.5921 45.9819 38.0886 44.9588 37.9957 43.5392H49.8295C49.8777 43.2811 49.9201 42.9397 49.9518 42.4927C49.9977 42.0644 50.0118 41.6209 50.0118 41.1739C50.0118 39.9444 49.8283 38.7911 49.4695 37.7129C49.1166 36.6452 48.5826 35.7184 47.8886 34.9417C47.1851 34.1556 46.3382 33.5502 45.3359 33.095C44.336 32.6468 43.1997 32.4263 41.9152 32.4263C40.4412 32.4263 39.1508 32.6797 38.0415 33.1854ZM39.1343 37.2424C39.7531 36.5831 40.6553 36.251 41.8375 36.251C42.8927 36.251 43.7032 36.5995 44.2831 37.2964C44.863 37.9886 45.1854 38.9049 45.2301 40.0429H38.0274C38.1486 38.8368 38.5156 37.9029 39.1332 37.2424H39.1343ZM68.5154 33.2088L63.0537 42.0902L69.3565 51.3694C70.1882 51.5102 71.0222 51.5806 71.8409 51.5806C72.6573 51.5806 74.0524 51.5102 74.9617 51.3694L68.1402 41.9893L74.2924 33.2076C73.4607 33.0645 72.0726 32.9883 71.2092 32.9883C70.2717 32.9883 69.3706 33.0645 68.5154 33.2076" fill="#B3D4FF"/>
<path fill-rule="evenodd" clip-rule="evenodd" d="M68.5151 33.2088L63.0534 42.0903L69.3562 51.3694C70.1879 51.5102 71.0219 51.5806 71.8406 51.5806C72.657 51.5806 74.0521 51.5102 74.9614 51.3694L68.1399 41.9894L74.2921 33.2077C73.4604 33.0645 72.0723 32.9883 71.2089 32.9883C70.2714 32.9883 69.3703 33.0645 68.5151 33.2077V33.2088ZM51.8148 33.2088L57.9517 41.9905L51.1455 51.3694C52.063 51.5102 53.4523 51.5806 54.2816 51.5806C55.1015 51.5806 55.9284 51.5102 56.7719 51.3694L63.0534 42.0891L57.6141 33.2077C56.7048 33.0657 55.8014 32.9895 54.9062 32.9895C53.9734 32.9895 52.5889 33.0657 51.8148 33.2088Z" fill="#B3D4FF"/>
<path fill-rule="evenodd" clip-rule="evenodd" d="M51.8148 33.2088L57.9517 41.9904L51.1455 51.3693C52.063 51.5101 53.4523 51.5805 54.2816 51.5805C55.1015 51.5805 55.9284 51.5101 56.7719 51.3693L63.0534 42.089L57.6141 33.2076C56.7048 33.0656 55.8014 32.9894 54.9062 32.9894C53.9734 32.9894 52.5889 33.0656 51.8148 33.2088ZM94.8483 25.8725L88.8714 40.1602L83.0616 25.8725C82.1711 25.7317 81.2677 25.666 80.356 25.666C79.4891 25.666 78.5845 25.7317 77.6434 25.8725L76.6624 50.8085C77.4623 50.9493 78.2304 51.0173 78.9832 51.0173C79.6843 51.0173 80.4101 50.9481 81.1618 50.8085L81.6594 33.637L86.4376 45.6099C86.7693 45.6744 87.0858 45.726 87.3869 45.7413C87.6951 45.7706 88.0068 45.7859 88.3068 45.7859C88.6609 45.7859 89.0079 45.7624 89.362 45.726C89.7078 45.6967 90.0478 45.6521 90.3807 45.6087L95.5212 33.8822L96.1541 50.8085C96.9304 50.9493 97.7127 51.0173 98.5126 51.0173C99.3054 51.0173 100.148 50.9481 101.044 50.8085L99.8466 25.8725C99.0255 25.7317 98.1668 25.666 97.2763 25.666C96.3881 25.666 95.5812 25.7317 94.8483 25.8725Z" fill="#B3D4FF"/>
<path fill-rule="evenodd" clip-rule="evenodd" d="M94.8486 25.8727L88.8717 40.1604L83.0618 25.8727C82.1713 25.7319 81.2679 25.6662 80.3563 25.6662C79.4893 25.6662 78.5847 25.7319 77.6437 25.8727L76.6626 50.8087C77.4625 50.9495 78.2306 51.0176 78.9835 51.0176C79.6846 51.0176 80.4104 50.9483 81.162 50.8087L81.6596 33.6372L86.4379 45.6101C86.7696 45.6746 87.086 45.7263 87.3872 45.7415C87.6954 45.7708 88.0071 45.7861 88.307 45.7861C88.6611 45.7861 89.0081 45.7626 89.3622 45.7263C89.708 45.6969 90.048 45.6523 90.3809 45.6089L95.5215 33.8824L96.1543 50.8087C96.9307 50.9495 97.7129 51.0176 98.5128 51.0176C99.3057 51.0176 100.148 50.9483 101.044 50.8087L99.8468 25.8727C99.0257 25.7319 98.167 25.6662 97.2765 25.6662C96.3884 25.6662 95.5814 25.7319 94.8486 25.8727ZM103.798 12.6304L96.5084 14.0899C96.6225 14.2448 96.8119 14.4876 97.0918 14.8067C97.3765 15.1329 97.7106 15.499 98.1035 15.8838C98.4164 16.1888 98.7211 16.4681 99.0293 16.732C99.3269 16.9831 99.5362 17.1403 99.6562 17.2131L106.621 15.438L108.416 8.51233C108.349 8.39266 108.186 8.18382 107.922 7.87878C107.668 7.57491 107.393 7.27104 107.079 6.96717C106.682 6.57296 106.322 6.23859 105.994 5.96288C105.666 5.68013 105.423 5.48772 105.265 5.3833L103.798 12.6292V12.6304Z" fill="#B3D4FF"/>
<path fill-rule="evenodd" clip-rule="evenodd" d="M105.253 5.38428L103.797 12.6044L96.5073 14.0733C96.6214 14.2293 96.8108 14.4722 97.0908 14.7948C97.3755 15.1233 97.7095 15.4894 98.1012 15.8777C98.4142 16.1839 98.72 16.4643 99.0282 16.7295C99.3258 16.9829 99.5352 17.1401 99.6552 17.2152L106.62 15.4295L108.415 8.4652C108.348 8.34436 108.185 8.13435 107.921 7.82931C107.667 7.52309 107.392 7.21687 107.077 6.91066C106.681 6.51528 106.321 6.17856 105.993 5.90168C105.725 5.66937 105.514 5.49691 105.362 5.38428H105.253ZM99.0211 17.6974C98.7212 17.9579 98.4153 18.2406 98.1012 18.5445C97.7048 18.9317 97.3684 19.2954 97.092 19.6157C96.8108 19.943 96.6214 20.1788 96.5085 20.3395L103.795 21.8002L105.269 29.0461C105.422 28.9405 105.664 28.7434 105.986 28.4654C106.316 28.1908 106.681 27.8553 107.07 27.4623C107.384 27.1537 107.66 26.8522 107.921 26.5483C108.176 26.2503 108.341 26.0356 108.415 25.9171L106.621 18.9903L99.6552 17.2152C99.5364 17.2809 99.327 17.4452 99.0211 17.6974Z" fill="#B3D4FF"/>
<path fill-rule="evenodd" clip-rule="evenodd" d="M99.0209 17.6977C98.721 17.9582 98.4151 18.2409 98.1011 18.5448C97.7046 18.932 97.3682 19.2957 97.0918 19.616C96.8106 19.9433 96.6212 20.1791 96.5083 20.3399L103.794 21.8005L105.268 29.0465C105.421 28.9409 105.664 28.7438 105.986 28.4657C106.315 28.1912 106.681 27.8556 107.069 27.4626C107.383 27.154 107.66 26.8525 107.921 26.5486C108.176 26.2506 108.341 26.0359 108.415 25.9174L106.621 18.9906L99.655 17.2155C99.5362 17.2812 99.3268 17.4455 99.0209 17.6977ZM110.208 18.9906L108.416 25.9174C108.489 26.0441 108.655 26.2506 108.908 26.5486C109.163 26.8537 109.447 27.154 109.761 27.4626C110.149 27.8556 110.516 28.19 110.845 28.4657C111.165 28.7438 111.41 28.942 111.565 29.0465L113.036 21.8017L120.324 20.3399C120.21 20.1838 120.022 19.9433 119.741 19.616C119.463 19.2969 119.128 18.932 118.731 18.5448C118.423 18.2409 118.112 17.9582 117.812 17.7071C117.506 17.4455 117.295 17.2812 117.176 17.2144L110.209 18.9906H110.208Z" fill="#B3D4FF"/>
<path fill-rule="evenodd" clip-rule="evenodd" d="M110.208 18.9906L108.417 25.9174C108.489 26.0441 108.655 26.2506 108.908 26.5486C109.163 26.8537 109.447 27.154 109.761 27.4626C110.149 27.8556 110.516 28.19 110.846 28.4657C111.166 28.7438 111.41 28.942 111.566 29.0465L113.036 21.8017L120.324 20.3399C120.21 20.1838 120.022 19.9433 119.741 19.616C119.463 19.2969 119.128 18.932 118.732 18.5448C118.424 18.2409 118.112 17.9582 117.812 17.7071C117.506 17.4455 117.295 17.2812 117.177 17.2144L110.209 18.9906H110.208Z" fill="#B3D4FF"/>
<mask id="mask2_1862_41887" style="mask-type:alpha" maskUnits="userSpaceOnUse" x="108" y="5" width="13" height="13">
<path d="M108.587 5.46094H120.65V17.1616H108.587V5.46094Z" fill="#1E46A0"/>
</mask>
<g mask="url(#mask2_1862_41887)">
<path fill-rule="evenodd" clip-rule="evenodd" d="M111.041 6.03367C110.716 6.30587 110.344 6.63672 109.949 7.01919C109.631 7.33128 109.344 7.62928 109.086 7.92259C108.828 8.23232 108.662 8.43647 108.587 8.54792L110.404 15.4043L117.455 17.1618C117.585 17.095 117.794 16.9342 118.098 16.6832C118.408 16.4227 118.724 16.147 119.037 15.8455C119.439 15.4559 119.773 15.104 120.061 14.7802C120.343 14.4563 120.538 14.2252 120.651 14.0704L113.26 12.6273L111.779 5.45996C111.619 5.56203 111.374 5.75796 111.041 6.0325" fill="#B3D4FF"/>
</g>
<mask id="mask3_1862_41887" style="mask-type:alpha" maskUnits="userSpaceOnUse" x="108" y="5" width="13" height="13">
<path d="M108.587 5.57666H120.65V17.1612H108.587V5.57666Z" fill="#1E46A0"/>
</mask>
<g mask="url(#mask3_1862_41887)">
<path fill-rule="evenodd" clip-rule="evenodd" d="M111.612 5.57686C111.464 5.68714 111.274 5.84084 111.041 6.03442C110.715 6.30426 110.344 6.63629 109.949 7.01994C109.631 7.33085 109.344 7.62885 109.086 7.92333C108.828 8.23189 108.662 8.43721 108.587 8.5475L110.404 15.4039L117.455 17.1614C117.585 17.0945 117.794 16.9338 118.098 16.6827C118.408 16.4223 118.724 16.1466 119.037 15.845C119.439 15.4555 119.773 15.1035 120.061 14.7797C120.343 14.4559 120.538 14.2248 120.651 14.0699L113.26 12.6268L111.803 5.57568H111.612V5.57686Z" fill="#B3D4FF"/>
</g>
</svg>
